<svg xmlns="http://www.w3.org/2000/svg" xmlns:xlink="http://www.w3.org/1999/xlink" width="300" zoomAndPan="magnify" viewBox="0 0 224.87999 225" height="300" preserveAspectRatio="xMidYMid meet" version="1.0"><defs><g/><clipPath id="ec2ec48447"><path d="M 0 0.0585938 L 224.761719 0.0585938 L 224.761719 224.9375 L 0 224.9375 Z M 0 0.0585938 " clip-rule="nonzero"/></clipPath><clipPath id="9f28468215"><path d="M 33.875 90.890625 L 190.542969 90.890625 L 190.542969 134.367188 L 33.875 134.367188 Z M 33.875 90.890625 " clip-rule="nonzero"/></clipPath><clipPath id="8b5da1c452"><path d="M 38.113281 94.953125 L 112.339844 94.953125 L 112.339844 130.046875 L 38.113281 130.046875 Z M 38.113281 94.953125 " clip-rule="nonzero"/></clipPath></defs><g clip-path="url(#ec2ec48447)"><path fill="#ffffff" d="M 0 0.0585938 L 224.878906 0.0585938 L 224.878906 232.4375 L 0 232.4375 Z M 0 0.0585938 " fill-opacity="1" fill-rule="nonzero"/><path fill="#ffffff" d="M 0 0.0585938 L 224.878906 0.0585938 L 224.878906 224.941406 L 0 224.941406 Z M 0 0.0585938 " fill-opacity="1" fill-rule="nonzero"/><path fill="#ff66c4" d="M 0 0.0585938 L 224.878906 0.0585938 L 224.878906 224.941406 L 0 224.941406 Z M 0 0.0585938 " fill-opacity="1" fill-rule="nonzero"/></g><g clip-path="url(#9f28468215)"><path stroke-linecap="butt" transform="matrix(0.748369, 0, 0, 0.754069, 33.875479, 90.890812)" fill="none" stroke-linejoin="miter" d="M -0.000639949 -0.000247756 L 209.345247 -0.000247756 L 209.345247 57.655691 L -0.000639949 57.655691 L -0.000639949 -0.000247756 " stroke="#ffffff" stroke-width="4" stroke-opacity="1" stroke-miterlimit="4"/></g><g clip-path="url(#8b5da1c452)"><path fill="#ffffff" d="M 38.113281 94.953125 L 112.761719 94.953125 L 112.761719 130.410156 L 38.113281 130.410156 Z M 38.113281 94.953125 " fill-opacity="1" fill-rule="nonzero"/></g><g fill="#000000" fill-opacity="1"><g transform="translate(39.946598, 116.738079)"><g><path d="M 1.597656 0 L 5.382812 0 C 8.75 0 11.003906 -2.238281 11.003906 -5.476562 C 11.003906 -8.71875 8.75 -10.957031 5.382812 -10.957031 L 1.597656 -10.957031 Z M 2.972656 -1.316406 L 2.972656 -9.640625 L 5.320312 -9.640625 C 7.871094 -9.640625 9.59375 -7.964844 9.59375 -5.476562 C 9.59375 -2.988281 7.886719 -1.316406 5.382812 -1.316406 Z M 2.972656 -1.316406 "/></g></g></g><g fill="#000000" fill-opacity="1"><g transform="translate(53.045985, 116.738079)"><g><path d="M 1.597656 0 L 2.972656 0 L 2.972656 -10.957031 L 1.597656 -10.957031 Z M 1.597656 0 "/></g></g></g><g fill="#000000" fill-opacity="1"><g transform="translate(58.805389, 116.738079)"><g><path d="M 6.480469 0.203125 C 9.84375 0.203125 12.113281 -2.347656 12.050781 -5.949219 L 6.105469 -5.949219 L 6.105469 -4.632812 L 10.566406 -4.632812 C 10.28125 -2.566406 8.71875 -1.175781 6.511719 -1.175781 C 4.054688 -1.175781 2.316406 -2.941406 2.316406 -5.476562 C 2.316406 -8.011719 4.039062 -9.78125 6.496094 -9.78125 C 8.1875 -9.78125 9.53125 -8.953125 10.21875 -7.542969 L 11.722656 -7.542969 C 11.019531 -9.703125 8.953125 -11.160156 6.449219 -11.160156 C 3.238281 -11.160156 0.90625 -8.765625 0.90625 -5.476562 C 0.90625 -2.175781 3.253906 0.203125 6.480469 0.203125 Z M 6.480469 0.203125 "/></g></g></g><g fill="#000000" fill-opacity="1"><g transform="translate(72.906395, 116.738079)"><g><path d="M 1.597656 0 L 2.972656 0 L 2.972656 -10.957031 L 1.597656 -10.957031 Z M 1.597656 0 "/></g></g></g><g fill="#000000" fill-opacity="1"><g transform="translate(78.665799, 116.738079)"><g><path d="M 4.242188 0 L 5.617188 0 L 5.617188 -9.640625 L 9.3125 -9.640625 L 9.3125 -10.957031 L 0.53125 -10.957031 L 0.53125 -9.640625 L 4.242188 -9.640625 Z M 4.242188 0 "/></g></g></g><g fill="#000000" fill-opacity="1"><g transform="translate(89.714995, 116.738079)"><g><path d="M 0.265625 0 L 1.738281 0 L 2.738281 -2.488281 L 8.078125 -2.488281 L 9.109375 0 L 10.566406 0 L 6.058594 -10.957031 L 4.773438 -10.957031 Z M 3.269531 -3.773438 L 5.414062 -9.03125 L 7.558594 -3.773438 Z M 3.269531 -3.773438 "/></g></g></g><g fill="#000000" fill-opacity="1"><g transform="translate(101.734517, 116.738079)"><g><path d="M 1.597656 0 L 8.296875 0 L 8.296875 -1.316406 L 2.972656 -1.316406 L 2.972656 -10.957031 L 1.597656 -10.957031 Z M 1.597656 0 "/></g></g></g><g fill="#ffffff" fill-opacity="1"><g transform="translate(126.837537, 116.738079)"><g><path d="M 1.160156 0 L 4.320312 0 L 4.320312 -3.253906 L 7.980469 -3.253906 L 7.980469 -5.996094 L 4.320312 -5.996094 L 4.320312 -8.140625 L 8.390625 -8.140625 L 8.390625 -10.957031 L 1.160156 -10.957031 Z M 1.160156 0 "/></g></g></g><g fill="#ffffff" fill-opacity="1"><g transform="translate(135.820796, 116.738079)"><g><path d="M 6.496094 0.234375 C 9.984375 0.234375 12.457031 -2.128906 12.457031 -5.476562 C 12.457031 -8.828125 9.984375 -11.191406 6.496094 -11.191406 C 3.003906 -11.191406 0.53125 -8.828125 0.53125 -5.476562 C 0.53125 -2.128906 3.003906 0.234375 6.496094 0.234375 Z M 3.742188 -5.476562 C 3.742188 -7.121094 4.882812 -8.265625 6.496094 -8.265625 C 8.125 -8.265625 9.25 -7.121094 9.25 -5.476562 C 9.25 -3.835938 8.125 -2.691406 6.496094 -2.691406 C 4.882812 -2.691406 3.742188 -3.835938 3.742188 -5.476562 Z M 3.742188 -5.476562 "/></g></g></g><g fill="#ffffff" fill-opacity="1"><g transform="translate(148.826179, 116.738079)"><g><path d="M 1.160156 0 L 8.796875 0 L 8.796875 -2.925781 L 4.320312 -2.925781 L 4.320312 -10.957031 L 1.160156 -10.957031 Z M 1.160156 0 "/></g></g></g><g fill="#ffffff" fill-opacity="1"><g transform="translate(158.012892, 116.738079)"><g><path d="M 1.160156 0 L 4.320312 0 L 4.320312 -10.957031 L 1.160156 -10.957031 Z M 1.160156 0 "/></g></g></g><g fill="#ffffff" fill-opacity="1"><g transform="translate(163.490492, 116.738079)"><g><path d="M 6.496094 0.234375 C 9.984375 0.234375 12.457031 -2.128906 12.457031 -5.476562 C 12.457031 -8.828125 9.984375 -11.191406 6.496094 -11.191406 C 3.003906 -11.191406 0.53125 -8.828125 0.53125 -5.476562 C 0.53125 -2.128906 3.003906 0.234375 6.496094 0.234375 Z M 3.742188 -5.476562 C 3.742188 -7.121094 4.882812 -8.265625 6.496094 -8.265625 C 8.125 -8.265625 9.25 -7.121094 9.25 -5.476562 C 9.25 -3.835938 8.125 -2.691406 6.496094 -2.691406 C 4.882812 -2.691406 3.742188 -3.835938 3.742188 -5.476562 Z M 3.742188 -5.476562 "/></g></g></g></svg>